# Blender v3.1.2 OBJ File: ''
# www.blender.org
mtllib lander.mtl
o Cube
v 1.000000 1.000000 -1.000000
v 1.000000 -1.000000 -1.000000
v 1.000000 1.000000 1.000000
v 1.000000 -1.000000 1.000000
v -1.000000 1.000000 -1.000000
v -1.000000 -1.000000 -1.000000
v -1.000000 1.000000 1.000000
v -1.000000 -1.000000 1.000000
v 0.392655 2.386644 0.392655
v -0.392655 2.386644 0.392655
v 0.392655 2.386644 -0.392655
v -0.392655 2.386644 -0.392655
v -1.632274 -1.478447 -1.632274
v -1.632274 -1.478447 1.632274
v 1.632274 -1.478447 -1.632274
v 1.632274 -1.478447 1.632274
v -1.632274 -2.537509 -1.632274
v -1.632274 -2.537509 1.632274
v 1.632274 -2.537509 -1.632274
v 1.632274 -2.537509 1.632274
vt 0.625000 0.750000
vt 0.625000 0.500000
vt 0.625000 0.500000
vt 0.625000 0.750000
vt 0.375000 0.750000
vt 0.625000 1.000000
vt 0.375000 1.000000
vt 0.375000 0.000000
vt 0.625000 0.000000
vt 0.625000 0.250000
vt 0.375000 0.250000
vt 0.375000 0.500000
vt 0.375000 0.500000
vt 0.375000 0.250000
vt 0.875000 0.500000
vt 0.875000 0.750000
vt 0.625000 0.250000
vt 0.625000 1.000000
vt 0.625000 0.000000
vt 0.375000 0.750000
vt 0.375000 0.750000
vt 0.375000 0.500000
vt 0.375000 1.000000
vt 0.375000 0.000000
vt 0.125000 0.500000
vt 0.125000 0.750000
vt 0.375000 0.250000
vt 0.375000 1.000000
vt 0.375000 0.000000
vn 0.9160 0.4012 0.0000
vn 0.0000 0.0000 1.0000
vn -1.0000 0.0000 0.0000
vn 0.0000 0.7974 -0.6034
vn 1.0000 0.0000 0.0000
vn 0.0000 0.0000 -1.0000
vn 0.0000 1.0000 0.0000
vn 0.0000 0.4012 -0.9160
vn 0.0000 0.4012 0.9160
vn -0.9160 0.4012 0.0000
vn 0.0000 0.7974 0.6034
vn -0.6034 0.7974 0.0000
vn 0.6034 0.7974 0.0000
vn 0.0000 -1.0000 0.0000
usemtl Material
s off
f 3/1/1 1/2/1 11/3/1 9/4/1
f 4/5/2 3/1/2 7/6/2 8/7/2
f 8/8/3 7/9/3 5/10/3 6/11/3
f 6/11/4 2/12/4 15/13/4 13/14/4
f 2/12/5 1/2/5 3/1/5 4/5/5
f 6/11/6 5/10/6 1/2/6 2/12/6
f 11/3/7 12/15/7 10/16/7 9/4/7
f 1/2/8 5/10/8 12/17/8 11/3/8
f 7/6/9 3/1/9 9/4/9 10/18/9
f 5/10/10 7/9/10 10/19/10 12/17/10
f 15/13/5 16/20/5 20/21/5 19/22/5
f 4/5/11 8/7/11 14/23/11 16/20/11
f 8/8/12 6/11/12 13/14/12 14/24/12
f 2/12/13 4/5/13 16/20/13 15/13/13
f 17/25/14 19/22/14 20/21/14 18/26/14
f 13/14/6 15/13/6 19/22/6 17/27/6
f 16/20/2 14/23/2 18/28/2 20/21/2
f 14/24/3 13/14/3 17/27/3 18/29/3
