# Blender v3.1.2 OBJ File: 'Sky.blend'
# www.blender.org
mtllib Sky.mtl
o Sky_Icosphere
v 0.000000 -380.343414 0.000000
v 275.219269 -170.097000 199.956161
v -105.122360 -170.097122 323.538849
v -340.189117 -170.095520 0.000000
v -105.122360 -170.097122 -323.538849
v 275.219269 -170.097000 -199.956161
v 105.122360 170.097122 323.538849
v -275.219269 170.097000 199.956161
v -275.219269 170.097000 -199.956161
v 105.122360 170.097122 -323.538849
v 340.189117 170.095520 0.000000
v 0.000000 380.343414 0.000000
v -61.788902 -323.540802 190.169907
v 161.768677 -323.540710 117.530449
v 99.980423 -199.960846 307.702240
v 323.538300 -199.960190 0.000000
v 161.768677 -323.540710 -117.530449
v -199.957855 -323.539764 0.000000
v -261.748291 -199.960312 190.170532
v -61.788902 -323.540802 -190.169907
v -261.748291 -199.960312 -190.170532
v 99.980423 -199.960846 -307.702240
v 361.728577 0.000000 117.530914
v 361.728577 0.000000 -117.530914
v 0.000000 0.000000 380.343384
v 223.560379 0.000000 307.704163
v -361.728577 0.000000 117.530914
v -223.560379 0.000000 307.704163
v -223.560379 0.000000 -307.704163
v -361.728577 0.000000 -117.530914
v 223.560379 0.000000 -307.704163
v 0.000000 0.000000 -380.343384
v 261.748291 199.960312 190.170532
v -99.980423 199.960846 307.702240
v -323.538300 199.960190 0.000000
v -99.980423 199.960846 -307.702240
v 261.748291 199.960312 -190.170532
v 61.788902 323.540771 190.169907
v 199.957855 323.539764 0.000000
v -161.768677 323.540710 117.530449
v -161.768677 323.540710 -117.530449
v 61.788902 323.540771 -190.169907
vt 0.211304 0.723463
vt 0.073824 0.483680
vt 0.197286 0.500087
vt 0.593986 0.981054
vt 0.386146 0.895061
vt 0.582247 0.866790
vt 0.320262 0.545217
vt 0.396136 0.623903
vt 0.436576 0.756983
vt 0.806286 0.862919
vt 0.238907 0.390750
vt 0.115326 0.360679
vt 0.244189 0.287290
vt 0.370338 0.479634
vt 0.305843 0.447378
vt 0.379626 0.415327
vt 0.464790 0.572530
vt 0.411255 0.531291
vt 0.480020 0.509252
vt 0.561041 0.720403
vt 0.499647 0.642155
vt 0.598856 0.625307
vt 0.008325 0.260990
vt 0.059918 0.112644
vt 0.126137 0.171176
vt 0.321105 0.360386
vt 0.430504 0.462792
vt 0.533687 0.560603
vt 0.688295 0.722307
vt 0.290162 0.169014
vt 0.277489 0.013990
vt 0.445464 0.141680
vt 0.396549 0.348147
vt 0.360502 0.268640
vt 0.473000 0.297256
vt 0.490447 0.447231
vt 0.451338 0.393668
vt 0.543675 0.385429
vt 0.608425 0.536382
vt 0.550803 0.480969
vt 0.656497 0.440270
vt 0.847300 0.663274
vt 0.711071 0.571397
vt 0.903095 0.415469
vt 0.670514 0.220070
vt 0.489776 0.046743
vt 0.987156 0.654089
vn -0.0000 -1.0000 0.0000
vn 0.4253 -0.8507 0.3090
vn -0.1625 -0.8507 0.5000
vn 0.7236 -0.4472 0.5257
vn 0.8506 -0.5257 -0.0000
vn -0.5257 -0.8507 0.0000
vn -0.1625 -0.8507 -0.5000
vn 0.4253 -0.8507 -0.3090
vn 0.9511 -0.0000 0.3090
vn -0.2764 -0.4472 0.8506
vn 0.2629 -0.5257 0.8090
vn 0.0000 0.0000 1.0000
vn -0.8944 -0.4472 0.0000
vn -0.6882 -0.5257 0.5000
vn -0.9511 0.0000 0.3090
vn -0.2764 -0.4472 -0.8506
vn -0.6882 -0.5257 -0.5000
vn -0.5878 -0.0000 -0.8090
vn 0.7236 -0.4472 -0.5257
vn 0.2629 -0.5257 -0.8090
vn 0.5878 0.0000 -0.8090
vn 0.5878 0.0000 0.8090
vn -0.5878 -0.0000 0.8090
vn -0.9511 0.0000 -0.3090
vn 0.0000 -0.0000 -1.0000
vn 0.9511 -0.0000 -0.3090
vn 0.2764 0.4472 0.8506
vn 0.6882 0.5257 0.5000
vn 0.1625 0.8507 0.5000
vn -0.7236 0.4472 0.5257
vn -0.2629 0.5257 0.8090
vn -0.4253 0.8507 0.3090
vn -0.7236 0.4472 -0.5257
vn -0.8506 0.5257 0.0000
vn -0.4253 0.8507 -0.3090
vn 0.2764 0.4472 -0.8506
vn -0.2629 0.5257 -0.8090
vn 0.1625 0.8507 -0.5000
vn 0.8944 0.4472 0.0000
vn 0.6882 0.5257 -0.5000
vn 0.5257 0.8507 -0.0000
vn 0.0000 1.0000 -0.0000
usemtl None
s 1
f 1/1/1 14/2/2 13/3/3
f 2/4/4 14/5/2 16/6/5
f 1/1/1 13/3/3 18/7/6
f 1/1/1 18/7/6 20/8/7
f 1/1/1 20/8/7 17/9/8
f 2/4/4 16/6/5 23/10/9
f 3/11/10 15/12/11 25/13/12
f 4/14/13 19/15/14 27/16/15
f 5/17/16 21/18/17 29/19/18
f 6/20/19 22/21/20 31/22/21
f 2/23/4 23/24/9 26/25/22
f 3/11/10 25/13/12 28/26/23
f 4/14/13 27/16/15 30/27/24
f 5/17/16 29/19/18 32/28/25
f 6/20/19 31/22/21 24/29/26
f 7/30/27 33/31/28 38/32/29
f 8/33/30 34/34/31 40/35/32
f 9/36/33 35/37/34 41/38/35
f 10/39/36 36/40/37 42/41/38
f 11/42/39 37/43/40 39/44/41
f 39/44/41 42/41/38 12/45/42
f 39/44/41 37/43/40 42/41/38
f 37/43/40 10/39/36 42/41/38
f 42/41/38 41/38/35 12/45/42
f 42/41/38 36/40/37 41/38/35
f 36/40/37 9/36/33 41/38/35
f 41/38/35 40/35/32 12/45/42
f 41/38/35 35/37/34 40/35/32
f 35/37/34 8/33/30 40/35/32
f 40/35/32 38/32/29 12/45/42
f 40/35/32 34/34/31 38/32/29
f 34/34/31 7/30/27 38/32/29
f 38/32/29 39/46/41 12/45/42
f 38/32/29 33/31/28 39/46/41
f 33/47/28 11/42/39 39/44/41
f 24/29/26 37/43/40 11/42/39
f 24/29/26 31/22/21 37/43/40
f 31/22/21 10/39/36 37/43/40
f 32/28/25 36/40/37 10/39/36
f 32/28/25 29/19/18 36/40/37
f 29/19/18 9/36/33 36/40/37
f 30/27/24 35/37/34 9/36/33
f 30/27/24 27/16/15 35/37/34
f 27/16/15 8/33/30 35/37/34
f 28/26/23 34/34/31 8/33/30
f 28/26/23 25/13/12 34/34/31
f 25/13/12 7/30/27 34/34/31
f 26/25/22 33/31/28 7/30/27
f 26/25/22 23/24/9 33/31/28
f 23/10/9 11/42/39 33/47/28
f 31/22/21 32/28/25 10/39/36
f 31/22/21 22/21/20 32/28/25
f 22/21/20 5/17/16 32/28/25
f 29/19/18 30/27/24 9/36/33
f 29/19/18 21/18/17 30/27/24
f 21/18/17 4/14/13 30/27/24
f 27/16/15 28/26/23 8/33/30
f 27/16/15 19/15/14 28/26/23
f 19/15/14 3/11/10 28/26/23
f 25/13/12 26/25/22 7/30/27
f 25/13/12 15/12/11 26/25/22
f 15/12/11 2/23/4 26/25/22
f 23/10/9 24/29/26 11/42/39
f 23/10/9 16/6/5 24/29/26
f 16/6/5 6/20/19 24/29/26
f 17/9/8 22/21/20 6/20/19
f 17/9/8 20/8/7 22/21/20
f 20/8/7 5/17/16 22/21/20
f 20/8/7 21/18/17 5/17/16
f 20/8/7 18/7/6 21/18/17
f 18/7/6 4/14/13 21/18/17
f 18/7/6 19/15/14 4/14/13
f 18/7/6 13/3/3 19/15/14
f 13/3/3 3/11/10 19/15/14
f 16/6/5 17/9/8 6/20/19
f 16/6/5 14/5/2 17/9/8
f 14/5/2 1/1/1 17/9/8
f 13/3/3 15/12/11 3/11/10
f 13/3/3 14/2/2 15/12/11
f 14/2/2 2/23/4 15/12/11
